<svg xmlns="http://www.w3.org/2000/svg" width="50" height="48" viewBox="0 0 50 48" fill="none">
<path d="M5.16292 39.4753C4.77189 42.1763 -0.434176 42.3266 0.029159 45.5921C0.492494 48.8576 10.9521 46.3567 10.9521 46.3567C19.5236 44.0054 24.6942 40.5121 24.1251 34.9967C23.4061 28.0299 19.5347 24.8385 13.2021 24.8384C9.42198 24.8798 4.40925 27.8881 3.08758 33.2492C1.76592 38.6104 5.55395 36.7743 5.16292 39.4753Z" fill="#160D0D"/>
<path d="M26.6889 30.8991C24.6753 27.4536 24.8181 26.5444 20.2613 24.2964C15.7045 22.0484 38.8301 3.96029 42.9844 1.02644C47.1387 -1.90741 51.3081 1.99858 49.6069 5.82626C47.9057 9.65395 32.0585 31.9731 26.6889 30.8991Z" fill="#160D0D"/>
</svg>
