<svg xmlns="http://www.w3.org/2000/svg" width="57" height="57" viewBox="0 0 57 57" fill="none">
<path d="M43.1455 2.28899C41.5454 1.75585 40.7419 1.90572 39.5112 3.19756L33.3575 9.37528L46.8583 22.7442L53.659 15.9176C54.7247 14.3593 54.674 13.5388 53.659 12.1535L43.1455 2.28899Z" fill="black"/>
<path d="M6.28333 36.5553L2.00006 54.4671L19.5225 50.1839M6.28333 36.5553L19.5225 50.1839M6.28333 36.5553L33.3575 9.37528M19.5225 50.1839L46.8583 22.7442M33.3575 9.37528L39.5112 3.19756C40.7419 1.90572 41.5454 1.75585 43.1455 2.28899L53.659 12.1535C54.674 13.5388 54.7247 14.3593 53.659 15.9176L46.8583 22.7442M33.3575 9.37528L46.8583 22.7442" stroke="black" stroke-width="4" stroke-linejoin="round"/>
</svg>
