<svg xmlns="http://www.w3.org/2000/svg" width="53" height="47" viewBox="0 0 53 47" fill="none">
<path d="M31.084 1.23207L31.2732 1.06082C32.2552 0.259623 33.7041 0.316667 34.6195 1.23207L48.145 14.7576C49.1213 15.7338 49.1212 17.3168 48.145 18.2931L24.8754 41.5627L50.2947 41.9874C51.3787 42.0056 52.2479 42.8899 52.2482 43.9741C52.2482 45.0714 51.3582 45.9614 50.2608 45.9614H12.5743L1.23223 34.6194C0.255919 33.6431 0.25592 32.0602 1.23223 31.0839L31.084 1.23207ZM7.39248 31.8055C6.7855 32.3853 6.77233 33.3501 7.36348 33.9461L14.8938 41.5399H16.9944C17.3745 41.5399 17.7406 41.3955 18.0184 41.136L25.3664 34.2658C25.9928 33.6803 26.0022 32.6895 25.3864 32.0927L17.341 24.2959C16.7623 23.735 15.8432 23.7316 15.2604 24.2883L7.39248 31.8055Z" fill="black" stroke="black"/>
</svg>
