<svg xmlns="http://www.w3.org/2000/svg" width="52" height="56" viewBox="0 0 52 56" fill="none">
<path d="M0.827485 32.4067C2.42682 37.4505 11.3638 47.523 13.0634 48.9252C14.763 50.3273 18.3117 53.6158 21.4862 54.1191C26.8504 54.9695 37.6247 56.5992 43.5647 47.3483C46.674 42.5059 50.4623 24.743 50.8548 21.5049C51.9391 16.3984 46.118 14.6937 44.6534 20.0632C43.8198 24.3019 42.5232 28.8225 41.4904 33.2225L40.3444 32.4067L40.7134 9.27221C40.8494 5.07653 34.6193 3.53582 34.0464 8.88278C33.9155 11.339 33.3763 23.798 33.2127 28.5081L31.5932 27.9429L31.1778 3.26757C31.0009 -0.135627 25.6404 -0.561444 24.3844 2.89262C23.7986 5.95137 24.2423 21.3414 23.4954 28.1644L20.7787 28.2851C20.2236 18.0652 20.1113 8.29401 20.1113 8.29401C20.1113 4.83762 14.5025 3.26757 13.4398 8.29401C12.7965 12.1374 13.4738 29.1561 12.7529 35.2789L5.98216 27.7231C3.87885 25.6815 -0.771854 27.363 0.827485 32.4067Z" fill="black" stroke="black" stroke-linejoin="round"/>
</svg>
