<svg xmlns="http://www.w3.org/2000/svg" width="54" height="59" viewBox="0 0 54 59" fill="none">
<path d="M9.7571 56.6533C12.5043 54.1709 18.0783 48.3322 18.396 44.8369C18.7138 41.3416 16.2564 39.4681 14.9881 38.9682M14.9881 38.9682C12.6696 38.31 5.84621 32.6878 3.70575 28.7325C2.53891 26.7223 -2.60202 13.8133 13.4968 4.93531C26.0305 -1.97657 51.6193 3.61861 51.8834 18.5428C52.1581 34.0718 39.1744 38.3845 21.9262 39.7463C19.0732 39.6165 17.0864 39.3823 14.9881 38.9682ZM14.9881 38.9682C16.0039 40.5676 15.3772 43.3125 11.6163 43.3125C7.85546 43.3125 1.47793 40.2019 2.27901 32.808C3.03408 29.1138 4.57124 25.1153 11.6163 24.7027C26.0113 23.8598 24.3903 40.1352 14.9881 38.9682Z" stroke="black" stroke-width="4" stroke-linecap="round"/>
</svg>
