<svg xmlns="http://www.w3.org/2000/svg" width="49" height="48" viewBox="0 0 49 48" fill="none">
<path d="M2 10.2086H7.25343M36.5853 10.2086C40.5176 10.2086 42.7222 10.2086 46.6545 10.2086H41.6199M36.5853 10.2086C36.5853 10.2086 36.5853 2.00004 24.1083 2C11.6313 1.99996 12.5069 10.2086 12.5069 10.2086M36.5853 10.2086H12.5069M36.5853 10.2086H41.6199M12.5069 10.2086H7.25343M7.25343 10.2086V38.3365C7.12088 42.5438 12.6134 45.9979 15.5714 45.9979C15.5714 45.9979 29.0319 45.9979 33.083 45.9979C36.4905 45.9979 41.6199 42.4213 41.6199 38.3365C41.5568 33.0394 41.6199 10.2086 41.6199 10.2086M15.7538 16.6246V39.3132M15.7538 16.6246V39.3133" stroke="black" stroke-width="4" stroke-linecap="round" stroke-linejoin="round"/>
<path d="M24.3582 16.6246V39.3133" stroke="black" stroke-width="4" stroke-linecap="round" stroke-linejoin="round"/>
<path d="M32.9905 16.6246V39.3133" stroke="black" stroke-width="4" stroke-linecap="round" stroke-linejoin="round"/>
</svg>
