<svg xmlns="http://www.w3.org/2000/svg" width="53" height="52" viewBox="0 0 53 52" fill="none">
<path d="M21.6281 17.0127C21.6281 10.7499 16.8083 8.87043 14.3984 8.71357C18.6591 7.57968 20.4008 6.01013 21.6281 0.5C22.6331 6.09532 24.6406 7.58946 29.0174 8.71357C26.259 9.18069 21.6431 10.7976 21.6281 17.0127Z" fill="black" stroke="black" stroke-linecap="round" stroke-linejoin="round"/>
<path d="M43.507 18.3471C43.507 11.727 37.7073 9.74037 34.8075 9.57457C39.9343 8.376 42.0302 6.71691 43.507 0.892456C44.7164 6.80696 47.132 8.38633 52.3986 9.57457C49.0794 10.0683 43.525 11.7775 43.507 18.3471Z" fill="black" stroke="black" stroke-linecap="round" stroke-linejoin="round"/>
<path d="M45.5872 33.0259C45.5872 29.7941 42.1685 28.8243 40.4591 28.7433C43.4812 28.1582 44.7167 27.3483 45.5872 24.5049C46.3001 27.3922 47.724 28.1632 50.8286 28.7433C48.872 28.9844 45.5978 29.8187 45.5872 33.0259Z" fill="black" stroke="black" stroke-linecap="round" stroke-linejoin="round"/>
<path fill-rule="evenodd" clip-rule="evenodd" d="M1.41421 46.6573C0.633165 45.8763 0.633165 44.6099 1.41421 43.8289L31.3796 13.8635C32.1606 13.0825 33.427 13.0825 34.208 13.8635L37.9612 17.6167C38.7423 18.3978 38.7423 19.6641 37.9612 20.4452L7.99587 50.4105C7.21482 51.1916 5.94849 51.1916 5.16744 50.4105L1.41421 46.6573ZM28.7389 25.5078C28.0564 26.1904 26.9498 26.1904 26.2672 25.5078C25.5847 24.8253 25.5847 23.7187 26.2672 23.0362L30.7776 18.5258C31.4602 17.8432 32.5668 17.8432 33.2493 18.5258C33.9318 19.2083 33.9318 20.3149 33.2493 20.9974L28.7389 25.5078Z" fill="black"/>
</svg>
